# xmcd
#
# Track frame offsets: 
#        150
#        12463
#        22322
#        37314
#        47737
#        61839
#        72516
#        82275
#        98759
#        108149
#        122246
#        134304
#        148373
#
# Disc length: 2432 seconds
#
# Revision: 0
# Processed by: cddbd v1.5.2PL0 Copyright (c) Steve Scherf et al.
# Submitted via: ExactAudioCopy v0.99pb4
#
DISCID=c9097e0d
DTITLE=Roger Wallace - It's About Time
DYEAR=2007
DGENRE=Country
TTITLE0=(My Little Corner of) Honky Tonk Hell
TTITLE1=It's About Time
TTITLE2=Give Me a Reason
TTITLE3=if It Wasn't for Me
TTITLE4=Everloving Sunday
TTITLE5=Smoke 'Em if You Got 'Em
TTITLE6=I Want That Water
TTITLE7=Alone at Last
TTITLE8=Frantic
TTITLE9=All By My Lonesome
TTITLE10=Prodigal Daughter, Favorite Son
TTITLE11=My Way's the Highway
TTITLE12=The Confession
EXTD=
EXTT0=
EXTT1=
EXTT2=
EXTT3=
EXTT4=
EXTT5=
EXTT6=
EXTT7=
EXTT8=
EXTT9=
EXTT10=
EXTT11=
EXTT12=
PLAYORDER=
